<?xml version="1.0" encoding="UTF-8" standalone="no"?>
<svg
   xmlns:dc="http://purl.org/dc/elements/1.1/"
   xmlns:cc="http://creativecommons.org/ns#"
   xmlns:rdf="http://www.w3.org/1999/02/22-rdf-syntax-ns#"
   xmlns:svg="http://www.w3.org/2000/svg"
   xmlns="http://www.w3.org/2000/svg"
   xmlns:sodipodi="http://sodipodi.sourceforge.net/DTD/sodipodi-0.dtd"
   xmlns:inkscape="http://www.inkscape.org/namespaces/inkscape"
   id="svg2"
   version="1.1"
   inkscape:version="0.47 r22583"
   width="2500"
   height="5000"
   sodipodi:docname="design.svg">
  <defs
     id="defs117">
    <inkscape:perspective
       sodipodi:type="inkscape:persp3d"
       inkscape:vp_x="0 : 2500 : 1"
       inkscape:vp_y="0 : 1000 : 0"
       inkscape:vp_z="2500 : 2500 : 1"
       inkscape:persp3d-origin="1250 : 1666.6667 : 1"
       id="perspective119" />
  </defs>
  <sodipodi:namedview
     pagecolor="#ffffff"
     bordercolor="#666666"
     borderopacity="1"
     objecttolerance="10"
     gridtolerance="10"
     guidetolerance="10"
     inkscape:pageopacity="0"
     inkscape:pageshadow="2"
     inkscape:window-width="1440"
     inkscape:window-height="782"
     id="namedview115"
     showgrid="false"
     inkscape:zoom="0.1888"
     inkscape:cx="678.88594"
     inkscape:cy="2699.2425"
     inkscape:window-x="0"
     inkscape:window-y="24"
     inkscape:window-maximized="0"
     inkscape:current-layer="svg2" />
  <metadata
     id="metadata8">
    <rdf:RDF>
      <cc:Work
         rdf:about="">
        <dc:format>image/svg+xml</dc:format>
        <dc:type
           rdf:resource="http://purl.org/dc/dcmitype/StillImage" />
        <dc:title />
      </cc:Work>
    </rdf:RDF>
  </metadata>
  <path
     stroke="blue"
     stroke-width="5"
     fill="none"
     d="m0,0 l0,200.0 l100.0,0 z"
     id="jaw-55-0" />
  <path
     stroke="blue"
     stroke-width="5"
     fill="none"
     d="m0,210.0 l0,200.0 l100.0,0 z"
     id="jaw-55-1" />
  <path
     stroke="blue"
     stroke-width="5"
     fill="none"
     d="m0,420.0 l0,200.0 l800.0,0 z"
     id="jaw-56-0" />
  <path
     stroke="blue"
     stroke-width="5"
     fill="none"
     d="m0,630.0 l0,200.0 l800.0,0 z"
     id="jaw-56-1" />
  <path
     stroke="blue"
     stroke-width="5"
     fill="none"
     d="m0,840.0 l0,260.0 l600.0,0 z"
     id="jaw-54-0" />
  <path
     stroke="blue"
     stroke-width="5"
     fill="none"
     d="m0,1110.0 l0,260.0 l600.0,0 z"
     id="jaw-54-1" />
  <path
     stroke="blue"
     stroke-width="5"
     fill="none"
     d="m0,1380.0 l0,350.0 l550.0,0 z"
     id="jaw-53-0" />
  <path
     stroke="blue"
     stroke-width="5"
     fill="none"
     d="m0,1740.0 l0,350.0 l550.0,0 z"
     id="jaw-53-1" />
  <path
     stroke="purple"
     stroke-width="5"
     fill="none"
     d="m0,2100.0 l0,260.0 l260.0,0 z"
     id="snout-6-0" />
  <path
     stroke="purple"
     stroke-width="5"
     fill="none"
     d="m0,2370.0 l0,260.0 l260.0,0 z"
     id="snout-6-1" />
  <path
     stroke="purple"
     stroke-width="5"
     fill="none"
     d="m0,2640.0 l0,260.0 l260.0,0 z"
     id="snout-7-0" />
  <path
     stroke="purple"
     stroke-width="5"
     fill="none"
     d="m0,2910.0 l0,260.0 l260.0,0 z"
     id="snout-7-1" />
  <path
     stroke="purple"
     stroke-width="5"
     fill="none"
     d="m0,3180.0 l0,260.0 l260.0,0 z"
     id="snout-15-0" />
  <path
     stroke="purple"
     stroke-width="5"
     fill="none"
     d="m0,3450.0 l0,260.0 l260.0,0 z"
     id="snout-15-1" />
  <path
     stroke="purple"
     stroke-width="5"
     fill="none"
     d="m0,3720.0 l0,260.0 l260.0,0 z"
     id="snout-12-0" />
  <path
     stroke="purple"
     stroke-width="5"
     fill="none"
     d="m0,3990.0 l0,260.0 l260.0,0 z"
     id="snout-12-1" />
  <path
     stroke="purple"
     stroke-width="5"
     fill="none"
     d="m0,4260.0 l0,300.0 l350.0,0 z"
     id="snout-8-0" />
  <path
     stroke="purple"
     stroke-width="5"
     fill="none"
     d="m0,4570.0 l0,300.0 l350.0,0 z"
     id="snout-8-1" />
  <path
     stroke="purple"
     stroke-width="5"
     fill="none"
     d="m0,4880.0 l0,260.0 l550.0,0 z"
     id="snout-9-0" />
  <path
     stroke="purple"
     stroke-width="5"
     fill="none"
     d="m0,5150.0 l0,260.0 l550.0,0 z"
     id="snout-9-1" />
  <path
     stroke="purple"
     stroke-width="5"
     fill="none"
     d="m0,5420.0 l0,260.0 l550.0,0 z"
     id="snout-10-0" />
  <path
     stroke="purple"
     stroke-width="5"
     fill="none"
     d="m0,5690.0 l0,260.0 l550.0,0 z"
     id="snout-10-1" />
  <path
     stroke="purple"
     stroke-width="5"
     fill="none"
     d="m0,5960.0 l0,260.0 l550.0,0 z"
     id="snout-11-0" />
  <path
     stroke="purple"
     stroke-width="5"
     fill="none"
     d="m0,6230.0 l0,260.0 l550.0,0 z"
     id="snout-11-1" />
  <path
     stroke="purple"
     stroke-width="5"
     fill="none"
     d="m0,6500.0 l0,260.0 l550.0,0 z"
     id="snout-14-0" />
  <path
     stroke="purple"
     stroke-width="5"
     fill="none"
     d="m0,6770.0 l0,260.0 l550.0,0 z"
     id="snout-14-1" />
  <path
     stroke="purple"
     stroke-width="5"
     fill="none"
     d="m0,7040.0 l0,260.0 l550.0,0 z"
     id="snout-16-0" />
  <path
     stroke="purple"
     stroke-width="5"
     fill="none"
     d="m0,7310.0 l0,260.0 l550.0,0 z"
     id="snout-16-1" />
  <path
     stroke="purple"
     stroke-width="5"
     fill="none"
     d="m0,7580.0 l0,300.0 l450.0,0 z"
     id="snout-19-0" />
  <path
     stroke="purple"
     stroke-width="5"
     fill="none"
     d="m0,7890.0 l0,300.0 l450.0,0 z"
     id="snout-19-1" />
  <path
     stroke="purple"
     stroke-width="5"
     fill="none"
     d="m0,8200.0 l0,400.0 l550.0,0 z"
     id="snout-20-0" />
  <path
     stroke="purple"
     stroke-width="5"
     fill="none"
     d="m0,8610.0 l0,400.0 l550.0,0 z"
     id="snout-20-1" />
  <path
     stroke="purple"
     stroke-width="5"
     fill="none"
     d="m0,9020.0 l0,400.0 l650.0,0 z"
     id="snout-21-0" />
  <path
     stroke="purple"
     stroke-width="5"
     fill="none"
     d="m0,9430.0 l0,400.0 l650.0,0 z"
     id="snout-21-1" />
  <path
     stroke="purple"
     stroke-width="5"
     fill="none"
     d="m0,9840.0 l0,260.0 l450.0,0 z"
     id="snout-22-0" />
  <path
     stroke="purple"
     stroke-width="5"
     fill="none"
     d="m0,10110.0 l0,260.0 l450.0,0 z"
     id="snout-22-1" />
  <path
     stroke="purple"
     stroke-width="5"
     fill="none"
     d="m0,10380.0 l0,260.0 l650.0,0 z"
     id="snout-17-0" />
  <path
     stroke="purple"
     stroke-width="5"
     fill="none"
     d="m0,10650.0 l0,260.0 l650.0,0 z"
     id="snout-17-1" />
  <path
     stroke="purple"
     stroke-width="5"
     fill="none"
     d="m0,10920.0 l0,260.0 l650.0,0 z"
     id="snout-25-0" />
  <path
     stroke="purple"
     stroke-width="5"
     fill="none"
     d="m0,11190.0 l0,260.0 l650.0,0 z"
     id="snout-25-1" />
  <path
     stroke="purple"
     stroke-width="5"
     fill="none"
     d="m0,11460.0 l0,200.0 l1000.0,0 z"
     id="snout-24-0" />
  <path
     stroke="purple"
     stroke-width="5"
     fill="none"
     d="m0,11670.0 l0,200.0 l1000.0,0 z"
     id="snout-24-1" />
  <path
     stroke="purple"
     stroke-width="5"
     fill="none"
     d="m0,11880.0 l0,260.0 l500.0,0 z"
     id="snout-13-0" />
  <path
     stroke="purple"
     stroke-width="5"
     fill="none"
     d="m0,12150.0 l0,260.0 l500.0,0 z"
     id="snout-13-1" />
  <path
     stroke="green"
     stroke-width="5"
     fill="none"
     d="m0,12420.0 l0,300.0 l500.0,0 z"
     id="side-33-0" />
  <path
     stroke="green"
     stroke-width="5"
     fill="none"
     d="m0,12730.0 l0,300.0 l500.0,0 z"
     id="side-33-1" />
  <path
     stroke="green"
     stroke-width="5"
     fill="none"
     d="m0,13040.0 l0,240.0 l550.0,0 z"
     id="side-32-0" />
  <path
     stroke="green"
     stroke-width="5"
     fill="none"
     d="m0,13290.0 l0,240.0 l550.0,0 z"
     id="side-32-1" />
  <path
     stroke="green"
     stroke-width="5"
     fill="none"
     d="m0,13540.0 l0,240.0 l400.0,0 z"
     id="side-31-0" />
  <path
     stroke="green"
     stroke-width="5"
     fill="none"
     d="m0,13790.0 l0,240.0 l400.0,0 z"
     id="side-31-1" />
  <path
     stroke="green"
     stroke-width="5"
     fill="none"
     d="m0,14040.0 l0,420.0 l750.0,0 z"
     id="side-27-0" />
  <path
     stroke="green"
     stroke-width="5"
     fill="none"
     d="m0,14470.0 l0,420.0 l750.0,0 z"
     id="side-27-1" />
  <path
     stroke="green"
     stroke-width="5"
     fill="none"
     d="m0,14900.0 l0,500.0 l750.0,0 z"
     id="side-28-0" />
  <path
     stroke="green"
     stroke-width="5"
     fill="none"
     d="m0,15410.0 l0,500.0 l750.0,0 z"
     id="side-28-1" />
  <path
     stroke="green"
     stroke-width="5"
     fill="none"
     d="m0,15920.0 l0,500.0 l750.0,0 z"
     id="side-29-0" />
  <path
     stroke="green"
     stroke-width="5"
     fill="none"
     d="m0,16430.0 l0,500.0 l750.0,0 z"
     id="side-29-1" />
  <path
     stroke="green"
     stroke-width="5"
     fill="none"
     d="m0,16940.0 l0,500.0 l750.0,0 z"
     id="side-30-0" />
  <path
     stroke="green"
     stroke-width="5"
     fill="none"
     d="m0,17450.0 l0,500.0 l750.0,0 z"
     id="side-30-1" />
  <path
     stroke="green"
     stroke-width="5"
     fill="none"
     d="m0,17960.0 l0,500.0 l750.0,0 z"
     id="side-34-0" />
  <path
     stroke="green"
     stroke-width="5"
     fill="none"
     d="m0,18470.0 l0,500.0 l750.0,0 z"
     id="side-34-1" />
  <path
     stroke="red"
     stroke-width="5"
     fill="none"
     d="m0,18980.0 l0,260.0 l600.0,0 z"
     id="top-51-0" />
  <path
     stroke="red"
     stroke-width="5"
     fill="none"
     d="m0,19250.0 l0,260.0 l600.0,0 z"
     id="top-51-1" />
  <path
     stroke="red"
     stroke-width="5"
     fill="none"
     d="m0,19520.0 l0,260.0 l260.0,0 z"
     id="top-37-0" />
  <path
     stroke="red"
     stroke-width="5"
     fill="none"
     d="m0,19790.0 l0,260.0 l260.0,0 z"
     id="top-37-1" />
  <path
     stroke="red"
     stroke-width="5"
     fill="none"
     d="m0,20060.0 l0,260.0 l260.0,0 z"
     id="top-46-0" />
  <path
     stroke="red"
     stroke-width="5"
     fill="none"
     d="m0,20330.0 l0,260.0 l260.0,0 z"
     id="top-46-1" />
  <path
     stroke="red"
     stroke-width="5"
     fill="none"
     d="m0,20600.0 l0,260.0 l260.0,0 z"
     id="top-47-0" />
  <path
     stroke="red"
     stroke-width="5"
     fill="none"
     d="m0,20870.0 l0,260.0 l260.0,0 z"
     id="top-47-1" />
  <path
     stroke="red"
     stroke-width="5"
     fill="none"
     d="m0,21140.0 l0,260.0 l260.0,0 z"
     id="top-49-0" />
  <path
     stroke="red"
     stroke-width="5"
     fill="none"
     d="m0,21410.0 l0,260.0 l260.0,0 z"
     id="top-49-1" />
  <path
     stroke="red"
     stroke-width="5"
     fill="none"
     d="m0,21680.0 l0,260.0 l260.0,0 z"
     id="top-50-0" />
  <path
     stroke="red"
     stroke-width="5"
     fill="none"
     d="m0,21950.0 l0,260.0 l260.0,0 z"
     id="top-50-1" />
  <path
     stroke="red"
     stroke-width="5"
     fill="none"
     d="m0,22220.0 l0,260.0 l650.0,0 z"
     id="top-45-0" />
  <path
     stroke="red"
     stroke-width="5"
     fill="none"
     d="m0,22490.0 l0,260.0 l650.0,0 z"
     id="top-45-1" />
  <path
     stroke="red"
     stroke-width="5"
     fill="none"
     d="m0,22760.0 l0,400.0 l750.0,0 z"
     id="top-40-0" />
  <path
     stroke="red"
     stroke-width="5"
     fill="none"
     d="m0,23170.0 l0,400.0 l750.0,0 z"
     id="top-40-1" />
  <path
     stroke="red"
     stroke-width="5"
     fill="none"
     d="m0,23580.0 l0,400.0 l750.0,0 z"
     id="top-41-0" />
  <path
     stroke="red"
     stroke-width="5"
     fill="none"
     d="m0,23990.0 l0,400.0 l750.0,0 z"
     id="top-41-1" />
  <path
     stroke="red"
     stroke-width="5"
     fill="none"
     d="m0,24400.0 l0,400.0 l750.0,0 z"
     id="top-42-0" />
  <path
     stroke="red"
     stroke-width="5"
     fill="none"
     d="m0,24810.0 l0,400.0 l750.0,0 z"
     id="top-42-1" />
  <path
     stroke="red"
     stroke-width="5"
     fill="none"
     d="m0,25220.0 l0,260.0 l300.0,0 z"
     id="top-38-0" />
  <path
     stroke="red"
     stroke-width="5"
     fill="none"
     d="m0,25490.0 l0,260.0 l300.0,0 z"
     id="top-38-1" />
  <path
     stroke="red"
     stroke-width="5"
     fill="none"
     d="m0,25760.0 l0,350.0 l950.0,0 z"
     id="top-43-0" />
  <path
     stroke="red"
     stroke-width="5"
     fill="none"
     d="m0,26120.0 l0,350.0 l950.0,0 z"
     id="top-43-1" />
  <path
     stroke="red"
     stroke-width="5"
     fill="none"
     d="m0,26480.0 l0,350.0 l950.0,0 z"
     id="top-44-0" />
  <path
     stroke="red"
     stroke-width="5"
     fill="none"
     d="m0,26840.0 l0,350.0 l950.0,0 z"
     id="top-44-1" />
  <path
     stroke="red"
     stroke-width="5"
     fill="none"
     d="m0,27200.0 l0,450.0 l950.0,0 z"
     id="top-35-0" />
  <path
     stroke="red"
     stroke-width="5"
     fill="none"
     d="m0,27660.0 l0,450.0 l950.0,0 z"
     id="top-35-1" />
  <path
     stroke="red"
     stroke-width="5"
     fill="none"
     d="m0,28120.0 l0,450.0 l700.0,0 z"
     id="path92" />
  <path
     stroke="red"
     stroke-width="5"
     fill="none"
     d="m0,28580.0 l0,450.0 l700.0,0 z"
     id="path94" />
  <path
     stroke="yellow"
     stroke-width="5"
     fill="none"
     d="m800,0 l800.0,0 l-200.0,1000.0 l-400.0,0 z"
     id="head-1" />
  <path
     stroke="yellow"
     stroke-width="5"
     fill="none"
     d="m800,1010.0 l500.0,0 l-50.0,600.0 l-400.0,0 z"
     id="head-3" />
  <path
     stroke="yellow"
     stroke-width="5"
     fill="none"
     d="m800,1620.0 l500.0,0 l-50.0,260.0 l-400.0,0 z"
     id="head-4" />
  <path
     stroke="yellow"
     stroke-width="5"
     fill="none"
     d="m800,1890.0 l500.0,0 l-50.0,240.0 l-400.0,0 z"
     id="head-2" />
  <path
     stroke="yellow"
     stroke-width="5"
     fill="none"
     d="m800,2140.0 l500.0,0 l-260.0,260.0 z"
     id="head-5" />
  <path
     stroke="blue"
     stroke-width="5"
     fill="none"
     d="m800,2410.0 l260.0,0 l-130.0,225.2 z"
     id="jaw-57" />
  <path
     stroke="blue"
     stroke-width="5"
     fill="none"
     d="m800,2645.2 l260.0,0 l-130.0,225.2 z"
     id="jaw-57-2" />
  <path
     d="m 1116,2655.2 450,0 -225,100 z"
     id="jaw-58"
     style="fill:none;stroke:#0000ff;stroke-width:5" />
  <path
     d="m 1114,2765.2 450,0 -225,100 z"
     id="jaw-58-2"
     style="fill:none;stroke:#0000ff;stroke-width:5" />
  <path
     stroke="purple"
     stroke-width="5"
     fill="none"
     d="m800,2875.2 l500.0,0 l-250.0,300.0 z"
     id="snout-18" />
  <path
     stroke="purple"
     stroke-width="5"
     fill="none"
     d="m800,3185.2 l500.0,0 l-250.0,300.0 z"
     id="snout-18-2" />
  <path
     stroke="purple"
     stroke-width="5"
     fill="none"
     d="m800,3495.2 l260.0,0 l0,260.0 l-260.0,0 z"
     id="snout-23" />
  <path
     stroke="purple"
     stroke-width="5"
     fill="none"
     d="m800,3765.2 l260.0,0 l0,260.0 l-260.0,0 z"
     id="snout-23-2" />
  <path
     stroke="green"
     stroke-width="5"
     fill="none"
     d="m800,4025.2 l900.0,0 l-450.0,870.0 z"
     id="side-26" />
  <path
     stroke="green"
     stroke-width="5"
     fill="none"
     d="m800,4905.2 l900.0,0 l-450.0,870.0 z"
     id="side-26-2" />
  <path
     stroke="red"
     stroke-width="5"
     fill="none"
     d="m800,5785.2 l450.0,0 l-225.0,380.0 z"
     id="top-39" />
  <path
     stroke="red"
     stroke-width="5"
     fill="none"
     d="m800,6175.2 l450.0,0 l-225.0,380.0 z"
     id="top-39-2" />
  <path
     stroke="red"
     stroke-width="5"
     fill="none"
     d="m800,6565.2 l780.0,0 l-187.6,180.0 z"
     id="top-48" />
  <path
     stroke="red"
     stroke-width="5"
     fill="none"
     d="m800,6755.2 l780.0,0 l-187.6,180.0 z"
     id="top-48-2" />
</svg>
